<?xml version="1.0" ?><svg data-name="Layer 1" id="Layer_1" viewBox="0 0 150 150" xmlns="http://www.w3.org/2000/svg" xmlns:xlink="http://www.w3.org/1999/xlink"><defs><style>.cls-1{fill:#13818d;}.cls-2{clip-path:url(#clip-path);}.cls-3{fill:#44c2c7;}.cls-4{fill:#30a7ad;}.cls-5{fill:#fff;}.cls-6{fill:#f9c774;}</style><clipPath id="clip-path"><circle class="cls-1" cx="75" cy="75" r="65"/></clipPath></defs><title/><circle class="cls-1" cx="75" cy="75" r="65"/><g class="cls-2"><path class="cls-3" d="M136.22,77.22a22.69,22.69,0,0,1-20.35-12.66,22.68,22.68,0,0,1-40.58.24,22.69,22.69,0,0,1-40.1.69A22.69,22.69,0,0,1-7.08,58.17H-7.4v43.67H158.93V58.17h-0.32A22.7,22.7,0,0,1,136.22,77.22Z"/><path class="cls-4" d="M136.22,100.72a22.68,22.68,0,0,1-20.35-12.67,22.68,22.68,0,0,1-40.58.23,22.69,22.69,0,0,1-40.1.7A22.69,22.69,0,0,1-7.08,81.67H-7.4v43.67H158.93V81.67h-0.32A22.7,22.7,0,0,1,136.22,100.72Z"/><polygon class="cls-5" points="59.09 62.76 40.21 159.12 107.9 159.12 90.47 62.76 90.4 62.76 90.4 38.35 93.95 38.35 75 19.4 56.05 38.35 59.16 38.35 59.16 62.76 59.09 62.76"/><rect class="cls-1" height="24.89" width="26.47" x="61.32" y="37.87"/><circle class="cls-6" cx="75" cy="50.56" r="6.25"/><rect class="cls-3" height="8.06" width="4.68" x="72.44" y="70.48"/><rect class="cls-3" height="8.06" width="4.68" x="72.44" y="95.32"/><path class="cls-1" d="M136.22,124.37a22.68,22.68,0,0,1-20.35-12.67,22.68,22.68,0,0,1-40.58.24,22.69,22.69,0,0,1-40.1.7,22.69,22.69,0,0,1-42.27-7.32H-7.4V149H158.93V105.33h-0.32A22.7,22.7,0,0,1,136.22,124.37Z"/></g></svg>